<svg xmlns="http://www.w3.org/2000/svg" viewBox="0 0 24 24" fill="#171717">
  <path d="M20.52 3.48A11.86 11.86 0 0 0 12.04 0C5.46 0 .11 5.35.1 11.93c0 2.1.55 4.15 1.6 5.96L0 24l6.26-1.64a11.93 11.93 0 0 0 5.77 1.47h.01C18.61 23.83 23.97 18.48 24 11.9a11.86 11.86 0 0 0-3.48-8.42ZM12.04 21.82h-.01a9.91 9.91 0 0 1-5.05-1.38l-.36-.21-3.72.97.99-3.63-.24-.37a9.9 9.9 0 0 1-1.52-5.27c0-5.46 4.45-9.91 9.92-9.91a9.84 9.84 0 0 1 7.02 2.91 9.84 9.84 0 0 1 2.89 7.02c0 5.47-4.45 9.87-9.92 9.87ZM17.48 14.4c-.3-.15-1.77-.87-2.04-.97-.27-.1-.47-.15-.67.15-.2.3-.77.97-.94 1.17-.17.2-.35.22-.65.07-.3-.15-1.26-.47-2.4-1.48-.89-.79-1.49-1.77-1.66-2.07-.17-.3-.02-.46.13-.61.13-.13.3-.35.45-.52.15-.17.2-.3.3-.5.1-.2.05-.37-.03-.52-.07-.15-.67-1.62-.91-2.22-.24-.58-.49-.5-.67-.5h-.57c-.2 0-.52.07-.79.37-.27.3-1.04 1.02-1.04 2.49s1.07 2.89 1.22 3.09c.15.2 2.1 3.21 5.08 4.5.71.31 1.26.49 1.69.62.71.23 1.35.2 1.86.12.57-.08 1.77-.72 2.02-1.42.25-.7.25-1.29.17-1.42-.07-.13-.27-.2-.57-.35Z"/>
</svg>
